<svg width="33" height="32" viewBox="0 0 33 32" fill="none" xmlns="http://www.w3.org/2000/svg">
<g id="dots-horizontal">
<g id="Icon">
<path d="M16.1875 17.3334C16.9239 17.3334 17.5208 16.7365 17.5208 16.0001C17.5208 15.2637 16.9239 14.6667 16.1875 14.6667C15.4511 14.6667 14.8542 15.2637 14.8542 16.0001C14.8542 16.7365 15.4511 17.3334 16.1875 17.3334Z" fill="#00091A"/>
<path d="M25.5208 17.3334C26.2572 17.3334 26.8542 16.7365 26.8542 16.0001C26.8542 15.2637 26.2572 14.6667 25.5208 14.6667C24.7845 14.6667 24.1875 15.2637 24.1875 16.0001C24.1875 16.7365 24.7845 17.3334 25.5208 17.3334Z" fill="#00091A"/>
<path d="M6.85418 17.3334C7.59056 17.3334 8.18751 16.7365 8.18751 16.0001C8.18751 15.2637 7.59056 14.6667 6.85418 14.6667C6.1178 14.6667 5.52084 15.2637 5.52084 16.0001C5.52084 16.7365 6.1178 17.3334 6.85418 17.3334Z" fill="#00091A"/>
<path d="M16.1875 17.3334C16.9239 17.3334 17.5208 16.7365 17.5208 16.0001C17.5208 15.2637 16.9239 14.6667 16.1875 14.6667C15.4511 14.6667 14.8542 15.2637 14.8542 16.0001C14.8542 16.7365 15.4511 17.3334 16.1875 17.3334Z" stroke="#00091A" stroke-width="2" stroke-linecap="round" stroke-linejoin="round"/>
<path d="M25.5208 17.3334C26.2572 17.3334 26.8542 16.7365 26.8542 16.0001C26.8542 15.2637 26.2572 14.6667 25.5208 14.6667C24.7845 14.6667 24.1875 15.2637 24.1875 16.0001C24.1875 16.7365 24.7845 17.3334 25.5208 17.3334Z" stroke="#00091A" stroke-width="2" stroke-linecap="round" stroke-linejoin="round"/>
<path d="M6.85418 17.3334C7.59056 17.3334 8.18751 16.7365 8.18751 16.0001C8.18751 15.2637 7.59056 14.6667 6.85418 14.6667C6.1178 14.6667 5.52084 15.2637 5.52084 16.0001C5.52084 16.7365 6.1178 17.3334 6.85418 17.3334Z" stroke="#00091A" stroke-width="2" stroke-linecap="round" stroke-linejoin="round"/>
</g>
</g>
</svg>
